<svg width="15" height="15" viewBox="0 0 15 15" fill="none" xmlns="http://www.w3.org/2000/svg">
<path d="M1.42788 1.00173H7.83682C8.08643 1.00173 8.28831 0.799848 8.28831 0.550244C8.28831 0.30064 8.08643 0.0987549 7.83682 0.0987549H1.42788C0.638692 0.0987549 0 0.741117 0 1.52663V13.5443C0 14.3335 0.642363 14.9722 1.42788 14.9722H13.4419C14.2311 14.9722 14.8698 14.3298 14.8698 13.5443V7.39599C14.8698 7.14639 14.6679 6.9445 14.4183 6.9445C14.1687 6.9445 13.9668 7.14639 13.9668 7.39599V13.5443C13.9668 13.8343 13.7282 14.0729 13.4382 14.0729H1.42788C1.1379 14.0729 0.899308 13.8343 0.899308 13.5443V1.53031C0.899308 1.24032 1.1379 1.00173 1.42788 1.00173Z" fill="black"/>
</svg>
