<svg width="16" height="16" viewBox="0 0 16 16" fill="none" xmlns="http://www.w3.org/2000/svg">
<path d="M1.50733 1.22446H8.27287C8.53637 1.22446 8.74949 1.01134 8.74949 0.747851C8.74949 0.484359 8.53637 0.27124 8.27287 0.27124H1.50733C0.67423 0.27124 0 0.949345 0 1.77857V14.4649C0 15.298 0.678105 15.9723 1.50733 15.9723H14.1898C15.0229 15.9723 15.6972 15.2942 15.6972 14.4649V7.97451C15.6972 7.71101 15.484 7.4979 15.2205 7.4979C14.957 7.4979 14.7439 7.71101 14.7439 7.97451V14.4649C14.7439 14.7711 14.4921 15.0229 14.1859 15.0229H1.50733C1.20121 15.0229 0.949346 14.7711 0.949346 14.4649V1.78244C0.949346 1.47633 1.20121 1.22446 1.50733 1.22446Z" fill="white"/>
</svg>
