<svg width="47" height="23" viewBox="0 0 47 23" fill="none" xmlns="http://www.w3.org/2000/svg">
<path d="M1.00004 23C1.23404 23 1.47004 22.918 1.66004 22.751L17.973 8.38902L28.275 18.69C28.666 19.081 29.298 19.081 29.689 18.69C30.08 18.299 30.08 17.667 29.689 17.276L24.882 12.469L34.063 2.41502L45.324 12.738C45.731 13.111 46.364 13.083 46.737 12.676C47.11 12.269 47.083 11.636 46.675 11.263L34.675 0.263018C34.479 0.0840178 34.218 -0.00498321 33.955 0.00101679C33.69 0.0130168 33.44 0.130018 33.261 0.326018L23.467 11.053L18.724 6.31002C18.35 5.93702 17.752 5.91802 17.356 6.26602L0.339041 21.249C-0.0759591 21.614 -0.115959 22.246 0.249041 22.661C0.447041 22.886 0.723041 23 1.00004 23Z" fill="#B9C5CC"/>
</svg>
