<svg width="15" height="15" viewBox="0 0 15 15" fill="none" xmlns="http://www.w3.org/2000/svg">
<path d="M5.43881 5.32321L3.69525 7.06676C3.05289 7.70912 2.40685 8.35149 1.76816 9.00119C1.61766 9.15536 1.50388 9.36091 1.45983 9.5628C1.22858 10.6236 1.00467 11.6844 0.780758 12.7452L0.655956 13.3325C0.597226 13.6189 0.674309 13.9052 0.868854 14.0997C1.01935 14.2502 1.22858 14.3346 1.44882 14.3346C1.51122 14.3346 1.57362 14.3273 1.63602 14.3163L2.28205 14.1805C3.30983 13.9639 4.34128 13.7437 5.36906 13.5308C5.60766 13.4794 5.80954 13.3729 5.98206 13.2004C8.86719 10.3116 11.7523 7.42648 14.6374 4.54503C14.8503 4.33213 14.9678 4.07886 14.9972 3.76685C15.0008 3.71546 14.9972 3.66408 14.9862 3.61636C14.9678 3.54294 14.9531 3.46586 14.9348 3.39245C14.8944 3.20525 14.8503 2.99235 14.7622 2.78679C14.2227 1.55346 13.327 0.672502 12.101 0.176965C11.8551 0.077858 11.5945 0.0448222 11.3669 0.0154571L11.3045 0.00811581C10.9741 -0.0322613 10.6731 0.077858 10.4125 0.342144C8.76074 2.00127 7.09794 3.66408 5.43881 5.32321ZM11.1834 0.892741C11.1907 0.892741 11.1944 0.892741 11.2017 0.892741L11.2641 0.900082C11.455 0.922106 11.6312 0.94413 11.7707 1.00286C12.7691 1.40663 13.5032 2.12608 13.9474 3.13917C13.9987 3.25663 14.0318 3.40713 14.0648 3.56497C14.0758 3.6237 14.0905 3.68243 14.1015 3.74116C14.0868 3.80723 14.0611 3.85128 14.0098 3.899C11.121 6.78045 8.23584 9.66925 5.35071 12.5544C5.30299 12.6021 5.25894 12.6241 5.19287 12.6388C4.16142 12.8554 3.13364 13.0719 2.10219 13.2885L1.55893 13.4023L1.66171 12.9214C1.88562 11.8643 2.10953 10.8035 2.33711 9.74633C2.34445 9.71329 2.37382 9.6619 2.40685 9.6252C3.04555 8.97917 3.68424 8.3368 4.3266 7.69811L6.07016 5.95456C7.73296 4.29176 9.39576 2.62895 11.0549 0.962483C11.1246 0.903753 11.1577 0.892741 11.1834 0.892741Z" fill="black"/>
</svg>
