<svg width="16" height="16" viewBox="0 0 16 16" fill="none" xmlns="http://www.w3.org/2000/svg">
<path d="M5.90824 5.6194L4.06767 7.45996C3.38957 8.13807 2.70759 8.81617 2.03336 9.50203C1.87449 9.66477 1.75436 9.88177 1.70787 10.0949C1.46375 11.2147 1.22738 12.3346 0.991013 13.4544L0.859266 14.0744C0.797268 14.3766 0.878641 14.6789 1.08401 14.8842C1.24288 15.0431 1.46375 15.1322 1.69624 15.1322C1.76211 15.1322 1.82799 15.1245 1.89386 15.1129L2.57584 14.9695C3.66081 14.7409 4.74965 14.5084 5.83462 14.2836C6.08648 14.2294 6.2996 14.117 6.48172 13.9349C9.52738 10.8854 12.573 7.8397 15.6187 4.79792C15.8434 4.57318 15.9674 4.30581 15.9984 3.97645C16.0023 3.9222 15.9984 3.86795 15.9868 3.81758C15.9674 3.74008 15.9519 3.65871 15.9326 3.58121C15.8899 3.38359 15.8434 3.15885 15.7504 2.94185C15.1808 1.63989 14.2354 0.709921 12.9412 0.186812C12.6815 0.0821901 12.4064 0.0473162 12.1662 0.0163172L12.1003 0.00856739C11.7516 -0.0340563 11.4338 0.0821901 11.1587 0.361182C9.41501 2.11263 7.65969 3.86795 5.90824 5.6194ZM11.9724 0.942414C11.9802 0.942414 11.9841 0.942414 11.9918 0.942414L12.0577 0.950164C12.2592 0.973413 12.4452 0.996662 12.5924 1.05866C13.6464 1.4849 14.4214 2.24437 14.8902 3.31384C14.9445 3.43784 14.9793 3.59671 15.0142 3.76333C15.0258 3.82533 15.0413 3.88732 15.053 3.94932C15.0375 4.01907 15.0103 4.06557 14.9561 4.11594C11.9066 7.15772 8.8609 10.2073 5.81524 13.2529C5.76487 13.3033 5.71837 13.3265 5.64862 13.342C4.55978 13.5707 3.47481 13.7993 2.38597 14.0279L1.81249 14.148L1.92098 13.6404C2.15735 12.5244 2.39372 11.4046 2.63396 10.2886C2.64171 10.2538 2.67271 10.1995 2.70759 10.1608C3.38182 9.47878 4.05605 8.80067 4.73415 8.12644L6.57472 6.28588C8.33004 4.53055 10.0854 2.77523 11.8368 1.01604C11.9104 0.954039 11.9453 0.942414 11.9724 0.942414Z" fill="white"/>
</svg>
